<svg xmlns="http://www.w3.org/2000/svg" viewBox="0 0 100 100" width="32" height="32">
  <defs>
    <!-- Modern gradient background -->
    <linearGradient id="bgGradient" x1="0%" y1="0%" x2="100%" y2="100%">
      <stop offset="0%" style="stop-color:#4f46e5;stop-opacity:1" />
      <stop offset="50%" style="stop-color:#7c3aed;stop-opacity:1" />
      <stop offset="100%" style="stop-color:#ec4899;stop-opacity:1" />
    </linearGradient>
    
    <!-- Text gradient -->
    <linearGradient id="textGradient" x1="0%" y1="0%" x2="100%" y2="100%">
      <stop offset="0%" style="stop-color:#ffffff;stop-opacity:1" />
      <stop offset="100%" style="stop-color:#f1f5f9;stop-opacity:1" />
    </linearGradient>
    
    <!-- Shadow filter -->
    <filter id="shadow" x="-50%" y="-50%" width="200%" height="200%">
      <feDropShadow dx="0" dy="2" stdDeviation="3" flood-color="#000000" flood-opacity="0.3"/>
    </filter>
    
    <!-- Glow effect -->
    <filter id="glow">
      <feGaussianBlur stdDeviation="1.5" result="coloredBlur"/>
      <feMerge> 
        <feMergeNode in="coloredBlur"/>
        <feMergeNode in="SourceGraphic"/>
      </feMerge>
    </filter>
  </defs>
  
  <!-- Background with modern shape -->
  <rect x="10" y="10" width="80" height="80" rx="20" fill="url(#bgGradient)" filter="url(#shadow)"/>
  
  <!-- Modern geometric accent -->
  <path d="M 15 25 L 25 15 L 35 25 Z" fill="#ffffff" opacity="0.2"/>
  <path d="M 65 75 L 75 65 L 85 75 Z" fill="#ffffff" opacity="0.2"/>
  
  <!-- Letter O - Modern design -->
  <ellipse cx="35" cy="50" rx="12" ry="18" 
           fill="none" 
           stroke="url(#textGradient)" 
           stroke-width="3.5" 
           stroke-linecap="round"
           filter="url(#glow)"/>
  
  <!-- Letter E - Contemporary style -->
  <path d="M 55 32 L 75 32 M 55 32 L 55 68 M 55 50 L 70 50 M 55 68 L 75 68" 
        fill="none" 
        stroke="url(#textGradient)" 
        stroke-width="3.5" 
        stroke-linecap="round"
        stroke-linejoin="round"
        filter="url(#glow)"/>
  
  <!-- Creative accent dots -->
  <circle cx="20" cy="80" r="2" fill="#ffffff" opacity="0.6"/>
  <circle cx="80" cy="20" r="2" fill="#ffffff" opacity="0.6"/>
  
  <!-- Modern line accent -->
  <path d="M 25 85 Q 50 90 75 85" 
        fill="none" 
        stroke="#ffffff" 
        stroke-width="2" 
        opacity="0.4"
        stroke-linecap="round"/>
</svg> 